<svg xmlns="http://www.w3.org/2000/svg" xmlns:xlink="http://www.w3.org/1999/xlink" contentStyleType="text/css" height="1294px" preserveAspectRatio="none" style="width:557px;height:1294px;background:#FFFFFF;" version="1.1" viewBox="0 0 557 1294" width="557px" zoomAndPan="magnify"><defs/><g><!--cluster Registrado--><g id="cluster_Registrado"><path d="M24.5,81 L165.5,81 A12.5,12.5 0 0 1 178,93.5 L178,102.2969 L12,102.2969 L12,93.5 A12.5,12.5 0 0 1 24.5,81 " fill="#F1F1F1" style="stroke:#F1F1F1;stroke-width:1;"/><rect fill="none" height="198" rx="12.5" ry="12.5" style="stroke:#181818;stroke-width:0.5;" width="166" x="12" y="81"/><line style="stroke:#181818;stroke-width:0.5;" x1="12" x2="178" y1="102.2969" y2="102.2969"/><text fill="#000000" font-family="sans-serif" font-size="14" lengthAdjust="spacing" textLength="75.6875" x="57.1563" y="97.9951">Registrado</text></g><!--cluster VistaPrincipal--><g id="cluster_VistaPrincipal"><path d="M103.5,344 L250.5,344 A12.5,12.5 0 0 1 263,356.5 L263,365.2969 L91,365.2969 L91,356.5 A12.5,12.5 0 0 1 103.5,344 " fill="#F1F1F1" style="stroke:#F1F1F1;stroke-width:1;"/><rect fill="none" height="198" rx="12.5" ry="12.5" style="stroke:#181818;stroke-width:0.5;" width="172" x="91" y="344"/><line style="stroke:#181818;stroke-width:0.5;" x1="91" x2="263" y1="365.2969" y2="365.2969"/><text fill="#000000" font-family="sans-serif" font-size="14" lengthAdjust="spacing" textLength="94.7324" x="129.6338" y="360.9951">VistaPrincipal</text></g><!--cluster LlenarFormulario--><g id="cluster_LlenarFormulario"><path d="M185.5,607 L376.5,607 A12.5,12.5 0 0 1 389,619.5 L389,628.2969 L173,628.2969 L173,619.5 A12.5,12.5 0 0 1 185.5,607 " fill="#F1F1F1" style="stroke:#F1F1F1;stroke-width:1;"/><rect fill="none" height="198" rx="12.5" ry="12.5" style="stroke:#181818;stroke-width:0.5;" width="216" x="173" y="607"/><line style="stroke:#181818;stroke-width:0.5;" x1="173" x2="389" y1="628.2969" y2="628.2969"/><text fill="#000000" font-family="sans-serif" font-size="14" lengthAdjust="spacing" textLength="119.0752" x="221.4624" y="623.9951">LlenarFormulario</text></g><!--cluster CreandoRecurso--><g id="cluster_CreandoRecurso"><path d="M289.5,870 L513.5,870 A12.5,12.5 0 0 1 526,882.5 L526,891.2969 L277,891.2969 L277,882.5 A12.5,12.5 0 0 1 289.5,870 " fill="#F1F1F1" style="stroke:#F1F1F1;stroke-width:1;"/><rect fill="none" height="325" rx="12.5" ry="12.5" style="stroke:#181818;stroke-width:0.5;" width="249" x="277" y="870"/><line style="stroke:#181818;stroke-width:0.5;" x1="277" x2="526" y1="891.2969" y2="891.2969"/><text fill="#000000" font-family="sans-serif" font-size="14" lengthAdjust="spacing" textLength="115.5752" x="343.7124" y="886.9951">CreandoRecurso</text></g><ellipse cx="99" cy="134" fill="#222222" rx="10" ry="10" style="stroke:#222222;stroke-width:1;"/><g id="Registrado.IniciarSesion"><rect fill="#F1F1F1" height="50" rx="12.5" ry="12.5" style="stroke:#181818;stroke-width:0.5;" width="108.9355" x="44.5" y="205"/><line style="stroke:#181818;stroke-width:0.5;" x1="44.5" x2="153.4355" y1="231.2969" y2="231.2969"/><text fill="#000000" font-family="sans-serif" font-size="14" lengthAdjust="spacing" textLength="88.9355" x="54.5" y="222.9951">IniciarSesion</text></g><ellipse cx="181" cy="397" fill="#222222" rx="10" ry="10" style="stroke:#222222;stroke-width:1;"/><g id="VistaPrincipal.CrearRecurso"><rect fill="#F1F1F1" height="50" rx="12.5" ry="12.5" style="stroke:#181818;stroke-width:0.5;" width="115.0059" x="123.5" y="468"/><line style="stroke:#181818;stroke-width:0.5;" x1="123.5" x2="238.5059" y1="494.2969" y2="494.2969"/><text fill="#000000" font-family="sans-serif" font-size="14" lengthAdjust="spacing" textLength="95.0059" x="133.5" y="485.9951">CrearRecurso</text></g><ellipse cx="285" cy="660" fill="#222222" rx="10" ry="10" style="stroke:#222222;stroke-width:1;"/><g id="LlenarFormulario.LlenandoFormulario"><rect fill="#F1F1F1" height="50" rx="12.5" ry="12.5" style="stroke:#181818;stroke-width:0.5;" width="159.6445" x="205" y="731"/><line style="stroke:#181818;stroke-width:0.5;" x1="205" x2="364.6445" y1="757.2969" y2="757.2969"/><text fill="#000000" font-family="sans-serif" font-size="14" lengthAdjust="spacing" textLength="139.6445" x="215" y="748.9951">LlenandoFormulario</text></g><ellipse cx="373" cy="923" fill="#222222" rx="10" ry="10" style="stroke:#222222;stroke-width:1;"/><g id="CreandoRecurso.RecursoCreado"><rect fill="#F1F1F1" height="50" rx="12.5" ry="12.5" style="stroke:#181818;stroke-width:0.5;" width="126.7021" x="309.5" y="994"/><line style="stroke:#181818;stroke-width:0.5;" x1="309.5" x2="436.2021" y1="1020.2969" y2="1020.2969"/><text fill="#000000" font-family="sans-serif" font-size="14" lengthAdjust="spacing" textLength="106.7021" x="319.5" y="1011.9951">RecursoCreado</text></g><g id="CreandoRecurso.VistaRecursos"><rect fill="#F1F1F1" height="50" rx="12.5" ry="12.5" style="stroke:#181818;stroke-width:0.5;" width="118.6494" x="309.5" y="1121"/><line style="stroke:#181818;stroke-width:0.5;" x1="309.5" x2="428.1494" y1="1147.2969" y2="1147.2969"/><text fill="#000000" font-family="sans-serif" font-size="14" lengthAdjust="spacing" textLength="98.6494" x="319.5" y="1138.9951">VistaRecursos</text></g><ellipse cx="20" cy="16" fill="#222222" rx="10" ry="10" style="stroke:#222222;stroke-width:1;"/><ellipse cx="369" cy="1277" fill="none" rx="11" ry="11" style="stroke:#222222;stroke-width:1;"/><ellipse cx="369" cy="1277" fill="#222222" rx="6" ry="6" style="stroke:#222222;stroke-width:1;"/><!--link *start* to Registrado--><g id="link_*start*_Registrado"><path d="M20,26.1 C20,32.83 20,42.7219 20,53.8117 C20,59.3566 20,65.2011 20,71.0995 C20,74.0487 20,77.0114 20,79.9569 C20,80.141 20,74.325 20,74.509 " fill="none" id="*start*-to-Registrado" style="stroke:#181818;stroke-width:1;"/><polygon fill="#181818" points="20,80.509,24,71.509,20,75.509,16,71.509,20,80.509" style="stroke:#181818;stroke-width:1;"/></g><!--link *start*Registrado to IniciarSesion--><g id="link_*start*Registrado_IniciarSesion"><path d="M99,144.01 C99,157.89 99,178.97 99,198.84 " fill="none" id="*start*Registrado-to-IniciarSesion" style="stroke:#181818;stroke-width:1;"/><polygon fill="#181818" points="99,204.84,103,195.84,99,199.84,95,195.84,99,204.84" style="stroke:#181818;stroke-width:1;"/></g><!--link IniciarSesion to VistaPrincipal--><g id="link_IniciarSesion_VistaPrincipal"><path d="M99,255.35 C99,277.94 99,312.365 99,341.5025 C99,341.9578 99,342.4118 99,342.8644 C99,343.0907 99,337.3167 99,337.5423 " fill="none" id="IniciarSesion-to-VistaPrincipal" style="stroke:#181818;stroke-width:1;"/><polygon fill="#181818" points="99,343.5423,103,334.5423,99,338.5423,95,334.5423,99,343.5423" style="stroke:#181818;stroke-width:1;"/><text fill="#000000" font-family="sans-serif" font-size="13" lengthAdjust="spacing" textLength="86.5122" x="100" y="316.0669">Login exitoso</text></g><!--link *start*VistaPrincipal to CrearRecurso--><g id="link_*start*VistaPrincipal_CrearRecurso"><path d="M181,407.01 C181,420.89 181,441.97 181,461.84 " fill="none" id="*start*VistaPrincipal-to-CrearRecurso" style="stroke:#181818;stroke-width:1;"/><polygon fill="#181818" points="181,467.84,185,458.84,181,462.84,177,458.84,181,467.84" style="stroke:#181818;stroke-width:1;"/></g><!--link CrearRecurso to LlenarFormulario--><g id="link_CrearRecurso_LlenarFormulario"><path d="M181,518.35 C181,540.94 181,575.365 181,604.5025 C181,604.9578 181,605.4118 181,605.8644 C181,606.0907 181,600.3167 181,600.5423 " fill="none" id="CrearRecurso-to-LlenarFormulario" style="stroke:#181818;stroke-width:1;"/><polygon fill="#181818" points="181,606.5423,185,597.5423,181,601.5423,177,597.5423,181,606.5423" style="stroke:#181818;stroke-width:1;"/><text fill="#000000" font-family="sans-serif" font-size="13" lengthAdjust="spacing" textLength="156.8506" x="182" y="579.0669">Usuario clickea en crear</text></g><!--link *start*LlenarFormulario to LlenandoFormulario--><g id="link_*start*LlenarFormulario_LlenandoFormulario"><path d="M285,670.01 C285,683.89 285,704.97 285,724.84 " fill="none" id="*start*LlenarFormulario-to-LlenandoFormulario" style="stroke:#181818;stroke-width:1;"/><polygon fill="#181818" points="285,730.84,289,721.84,285,725.84,281,721.84,285,730.84" style="stroke:#181818;stroke-width:1;"/></g><!--link LlenandoFormulario to CreandoRecurso--><g id="link_LlenandoFormulario_CreandoRecurso"><path d="M285,781.35 C285,803.94 285,838.365 285,867.5025 C285,867.9578 285,868.4118 285,868.8644 C285,869.0907 285,863.3167 285,863.5423 " fill="none" id="LlenandoFormulario-to-CreandoRecurso" style="stroke:#181818;stroke-width:1;"/><polygon fill="#181818" points="285,869.5423,289,860.5423,285,864.5423,281,860.5423,285,869.5423" style="stroke:#181818;stroke-width:1;"/><text fill="#000000" font-family="sans-serif" font-size="13" lengthAdjust="spacing" textLength="172.104" x="286" y="842.0669">Usuario llena el formulario</text></g><!--link *start*CreandoRecurso to RecursoCreado--><g id="link_*start*CreandoRecurso_RecursoCreado"><path d="M373,933.01 C373,946.89 373,967.97 373,987.84 " fill="none" id="*start*CreandoRecurso-to-RecursoCreado" style="stroke:#181818;stroke-width:1;"/><polygon fill="#181818" points="373,993.84,377,984.84,373,988.84,369,984.84,373,993.84" style="stroke:#181818;stroke-width:1;"/></g><!--link RecursoCreado to VistaRecursos--><g id="link_RecursoCreado_VistaRecursos"><path d="M372.23,1044.1 C371.52,1066.24 370.6726,1092.8631 369.9626,1114.9731 " fill="none" id="RecursoCreado-to-VistaRecursos" style="stroke:#181818;stroke-width:1;"/><polygon fill="#181818" points="369.77,1120.97,374.0568,1112.103,369.9305,1115.9726,366.0609,1111.8463,369.77,1120.97" style="stroke:#181818;stroke-width:1;"/><text fill="#000000" font-family="sans-serif" font-size="13" lengthAdjust="spacing" textLength="156.8506" x="372" y="1087.0669">Usuario clickea en crear</text></g><!--link VistaRecursos to *end*--><g id="link_VistaRecursos_*end*"><path d="M369,1171.26 C369,1199.73 369,1239.6 369,1259.84 " fill="none" id="VistaRecursos-to-*end*" style="stroke:#181818;stroke-width:1;"/><polygon fill="#181818" points="369,1265.84,373,1256.84,369,1260.84,365,1256.84,369,1265.84" style="stroke:#181818;stroke-width:1;"/><text fill="#000000" font-family="sans-serif" font-size="13" lengthAdjust="spacing" textLength="179.8354" x="370" y="1232.0669">Visualiza todos los recursos</text></g><!--SRC=[XP2z2i8m4CVtFiNDWY_Wu288WeDKT1678ptBOSp99GLHV7UJKaq_1eT0xl-HNvBJx0pp-H9Agja7nKgAmWSCr5FWLG2Skk36iM7KFNaM5_N1t2QEiOOxPMVuZXOMi9MQ7T23WtWftb_0ADU7h9HGIpADnW8CnjRVMdAeQz5ROr5P8kJWctPdB9ih8P03asgPDodrYQtfAibsDAVYxtPH_LueistA0rcuv5D- -56h3- -qbAWITp3dF-ra_-Urmsng9yuYdT6WvIT2a2ewDYxjOXy0]--></g></svg>