<svg xmlns="http://www.w3.org/2000/svg" xmlns:xlink="http://www.w3.org/1999/xlink" contentStyleType="text/css" height="522px" preserveAspectRatio="none" style="width:190px;height:522px;background:#FFFFFF;" version="1.1" viewBox="0 0 190 522" width="190px" zoomAndPan="magnify"><defs/><g><!--class UserModule--><g id="elem_UserModule"><rect codeLine="1" fill="#F1F1F1" height="96.8906" id="UserModule" rx="2.5" ry="2.5" style="stroke:#181818;stroke-width:0.5;" width="143.6602" x="23.5" y="419"/><ellipse cx="51.4792" cy="435" fill="#ADD1B2" rx="11" ry="11" style="stroke:#181818;stroke-width:1;"/><path d="M54.448,440.6406 Q53.8699,440.9375 53.2292,441.0781 Q52.5886,441.2344 51.8855,441.2344 Q49.3855,441.2344 48.0574,439.5938 Q46.7449,437.9375 46.7449,434.8125 Q46.7449,431.6875 48.0574,430.0313 Q49.3855,428.375 51.8855,428.375 Q52.5886,428.375 53.2292,428.5313 Q53.8855,428.6875 54.448,428.9844 L54.448,431.7031 Q53.823,431.125 53.2292,430.8594 Q52.6355,430.5781 52.0105,430.5781 Q50.6667,430.5781 49.9792,431.6563 Q49.2917,432.7188 49.2917,434.8125 Q49.2917,436.9063 49.9792,437.9844 Q50.6667,439.0469 52.0105,439.0469 Q52.6355,439.0469 53.2292,438.7813 Q53.823,438.5 54.448,437.9219 L54.448,440.6406 Z " fill="#000000"/><text fill="#000000" font-family="sans-serif" font-size="14" lengthAdjust="spacing" textLength="82.8174" x="68.3635" y="439.8467">UserModule</text><line style="stroke:#181818;stroke-width:0.5;" x1="24.5" x2="166.1602" y1="451" y2="451"/><rect fill="none" height="6" style="stroke:#C82930;stroke-width:1;" width="6" x="31.5" y="461.6484"/><text fill="#000000" font-family="sans-serif" font-size="14" lengthAdjust="spacing" textLength="80.5547" x="43.5" y="467.9951">id: ObjectId</text><rect fill="none" height="6" style="stroke:#C82930;stroke-width:1;" width="6" x="31.5" y="477.9453"/><text fill="#000000" font-family="sans-serif" font-size="14" lengthAdjust="spacing" textLength="89.5576" x="43.5" y="484.292">email: String</text><rect fill="none" height="6" style="stroke:#C82930;stroke-width:1;" width="6" x="31.5" y="494.2422"/><text fill="#000000" font-family="sans-serif" font-size="14" lengthAdjust="spacing" textLength="117.6602" x="43.5" y="500.5889">password: String</text><line style="stroke:#181818;stroke-width:0.5;" x1="24.5" x2="166.1602" y1="507.8906" y2="507.8906"/></g><!--class UserController--><g id="elem_UserController"><rect codeLine="7" fill="#F1F1F1" height="145.7813" id="UserController" rx="2.5" ry="2.5" style="stroke:#181818;stroke-width:0.5;" width="176.5479" x="7" y="213"/><ellipse cx="41.5592" cy="229" fill="#ADD1B2" rx="11" ry="11" style="stroke:#181818;stroke-width:1;"/><path d="M44.5279,234.6406 Q43.9498,234.9375 43.3092,235.0781 Q42.6686,235.2344 41.9654,235.2344 Q39.4654,235.2344 38.1373,233.5938 Q36.8248,231.9375 36.8248,228.8125 Q36.8248,225.6875 38.1373,224.0313 Q39.4654,222.375 41.9654,222.375 Q42.6686,222.375 43.3092,222.5313 Q43.9654,222.6875 44.5279,222.9844 L44.5279,225.7031 Q43.9029,225.125 43.3092,224.8594 Q42.7154,224.5781 42.0904,224.5781 Q40.7467,224.5781 40.0592,225.6563 Q39.3717,226.7188 39.3717,228.8125 Q39.3717,230.9063 40.0592,231.9844 Q40.7467,233.0469 42.0904,233.0469 Q42.7154,233.0469 43.3092,232.7813 Q43.9029,232.5 44.5279,231.9219 L44.5279,234.6406 Z " fill="#000000"/><text fill="#000000" font-family="sans-serif" font-size="14" lengthAdjust="spacing" textLength="101.083" x="59.9057" y="233.8467">UserController</text><line style="stroke:#181818;stroke-width:0.5;" x1="8" x2="182.5479" y1="245" y2="245"/><line style="stroke:#181818;stroke-width:0.5;" x1="8" x2="182.5479" y1="253" y2="253"/><ellipse cx="18" cy="266.6484" fill="#84BE84" rx="3" ry="3" style="stroke:#038048;stroke-width:1;"/><text fill="#000000" font-family="sans-serif" font-size="14" lengthAdjust="spacing" textLength="119.041" x="27" y="269.9951">register(req, res)</text><ellipse cx="18" cy="282.9453" fill="#84BE84" rx="3" ry="3" style="stroke:#038048;stroke-width:1;"/><text fill="#000000" font-family="sans-serif" font-size="14" lengthAdjust="spacing" textLength="98.8477" x="27" y="286.292">login(req, res)</text><ellipse cx="18" cy="299.2422" fill="#84BE84" rx="3" ry="3" style="stroke:#038048;stroke-width:1;"/><text fill="#000000" font-family="sans-serif" font-size="14" lengthAdjust="spacing" textLength="126.9365" x="27" y="302.5889">getUsers(req, res)</text><ellipse cx="18" cy="315.5391" fill="#84BE84" rx="3" ry="3" style="stroke:#038048;stroke-width:1;"/><text fill="#000000" font-family="sans-serif" font-size="14" lengthAdjust="spacing" textLength="150.5479" x="27" y="318.8857">getUserById(req, res)</text><ellipse cx="18" cy="331.8359" fill="#84BE84" rx="3" ry="3" style="stroke:#038048;stroke-width:1;"/><text fill="#000000" font-family="sans-serif" font-size="14" lengthAdjust="spacing" textLength="145.9814" x="27" y="335.1826">updateUser(req, res)</text><ellipse cx="18" cy="348.1328" fill="#84BE84" rx="3" ry="3" style="stroke:#038048;stroke-width:1;"/><text fill="#000000" font-family="sans-serif" font-size="14" lengthAdjust="spacing" textLength="140.7588" x="27" y="351.4795">deleteUser(req, res)</text></g><!--class UserRoutes--><g id="elem_UserRoutes"><rect codeLine="16" fill="#F1F1F1" height="145.7813" id="UserRoutes" rx="2.5" ry="2.5" style="stroke:#181818;stroke-width:0.5;" width="155.1514" x="18" y="7"/><ellipse cx="52.2054" cy="23" fill="#ADD1B2" rx="11" ry="11" style="stroke:#181818;stroke-width:1;"/><path d="M55.1742,28.6406 Q54.596,28.9375 53.9554,29.0781 Q53.3148,29.2344 52.6117,29.2344 Q50.1117,29.2344 48.7835,27.5938 Q47.471,25.9375 47.471,22.8125 Q47.471,19.6875 48.7835,18.0313 Q50.1117,16.375 52.6117,16.375 Q53.3148,16.375 53.9554,16.5313 Q54.6117,16.6875 55.1742,16.9844 L55.1742,19.7031 Q54.5492,19.125 53.9554,18.8594 Q53.3617,18.5781 52.7367,18.5781 Q51.3929,18.5781 50.7054,19.6563 Q50.0179,20.7188 50.0179,22.8125 Q50.0179,24.9063 50.7054,25.9844 Q51.3929,27.0469 52.7367,27.0469 Q53.3617,27.0469 53.9554,26.7813 Q54.5492,26.5 55.1742,25.9219 L55.1742,28.6406 Z " fill="#000000"/><text fill="#000000" font-family="sans-serif" font-size="14" lengthAdjust="spacing" textLength="80.4727" x="70.4733" y="27.8467">UserRoutes</text><line style="stroke:#181818;stroke-width:0.5;" x1="19" x2="172.1514" y1="39" y2="39"/><ellipse cx="29" cy="52.6484" fill="none" rx="3" ry="3" style="stroke:#038048;stroke-width:1;"/><text fill="#000000" font-family="sans-serif" font-size="14" lengthAdjust="spacing" textLength="100.3652" x="38" y="55.9951">POST /register</text><ellipse cx="29" cy="68.9453" fill="none" rx="3" ry="3" style="stroke:#038048;stroke-width:1;"/><text fill="#000000" font-family="sans-serif" font-size="14" lengthAdjust="spacing" textLength="80.1719" x="38" y="72.292">POST /login</text><ellipse cx="29" cy="85.2422" fill="none" rx="3" ry="3" style="stroke:#038048;stroke-width:1;"/><text fill="#000000" font-family="sans-serif" font-size="14" lengthAdjust="spacing" textLength="77.7588" x="38" y="88.5889">GET /getAll</text><ellipse cx="29" cy="101.5391" fill="none" rx="3" ry="3" style="stroke:#038048;stroke-width:1;"/><text fill="#000000" font-family="sans-serif" font-size="14" lengthAdjust="spacing" textLength="82.6123" x="38" y="104.8857">GET /get/:id</text><ellipse cx="29" cy="117.8359" fill="none" rx="3" ry="3" style="stroke:#038048;stroke-width:1;"/><text fill="#000000" font-family="sans-serif" font-size="14" lengthAdjust="spacing" textLength="107.9463" x="38" y="121.1826">PUT /update/:id</text><ellipse cx="29" cy="134.1328" fill="none" rx="3" ry="3" style="stroke:#038048;stroke-width:1;"/><text fill="#000000" font-family="sans-serif" font-size="14" lengthAdjust="spacing" textLength="129.1514" x="38" y="137.4795">DELETE /delete/:id</text><line style="stroke:#181818;stroke-width:0.5;" x1="19" x2="172.1514" y1="144.7813" y2="144.7813"/></g><!--link UserController to UserModule--><g id="link_UserController_UserModule"><path codeLine="25" d="M95.5,359.23 C95.5,379.3 95.5,394.59 95.5,412.86 " fill="none" id="UserController-to-UserModule" style="stroke:#181818;stroke-width:1;"/><polygon fill="#181818" points="95.5,418.86,99.5,409.86,95.5,413.86,91.5,409.86,95.5,418.86" style="stroke:#181818;stroke-width:1;"/></g><!--link UserRoutes to UserController--><g id="link_UserRoutes_UserController"><path codeLine="26" d="M95.5,153.21 C95.5,172.58 95.5,187.52 95.5,206.89 " fill="none" id="UserRoutes-to-UserController" style="stroke:#181818;stroke-width:1;"/><polygon fill="#181818" points="95.5,212.89,99.5,203.89,95.5,207.89,91.5,203.89,95.5,212.89" style="stroke:#181818;stroke-width:1;"/></g><!--SRC=[RP7T2e9044RlVOgvB4gyzoBeHq8eZDG7C7UGZScrtPM8wDrRrpIpBh_pxGo7sPmofI1LAFU2rOJmS01SuCo7w7J6N8VC0hnad7o8jUHbOKbb1cz2iXu-7IVljwr5gQKWGcatpa1YmPL6EP5udPkafXQJA7WvOWNgPeNwZrVta8sQkcAPngOS5Gm9VuelpwEeDQgtuo6A4_0wqm6obZPl0nEDoPBeAti-P-r0Qa0hrBDDi0kI0BnMns8ZCJgJwou6_-0CvBhcy_W5]--></g></svg>