<svg xmlns="http://www.w3.org/2000/svg" xmlns:xlink="http://www.w3.org/1999/xlink" contentStyleType="text/css" height="856px" preserveAspectRatio="none" style="width:445px;height:856px;background:#FFFFFF;" version="1.1" viewBox="0 0 445 856" width="445px" zoomAndPan="magnify"><defs/><g><!--cluster Server--><g id="cluster_Server"><rect fill="none" height="148" rx="2.5" ry="2.5" style="stroke:#000000;stroke-width:1.5;" width="219" x="148" y="7"/><text fill="#000000" font-family="sans-serif" font-size="14" font-weight="bold" lengthAdjust="spacing" textLength="52.0078" x="231.4961" y="21.9951">Server</text></g><!--cluster Routes--><g id="cluster_Routes"><rect fill="none" height="148" rx="2.5" ry="2.5" style="stroke:#000000;stroke-width:1.5;" width="347" x="10" y="187"/><text fill="#000000" font-family="sans-serif" font-size="14" font-weight="bold" lengthAdjust="spacing" textLength="54.8857" x="156.0571" y="201.9951">Routes</text></g><!--cluster Controllers--><g id="cluster_Controllers"><rect fill="none" height="180" rx="2.5" ry="2.5" style="stroke:#000000;stroke-width:1.5;" width="367" x="10" y="498"/><text fill="#000000" font-family="sans-serif" font-size="14" font-weight="bold" lengthAdjust="spacing" textLength="87.4043" x="149.7979" y="512.9951">Controllers</text></g><!--cluster Middleware--><g id="cluster_Middleware"><rect fill="none" height="115" rx="2.5" ry="2.5" style="stroke:#000000;stroke-width:1.5;" width="186" x="253" y="359"/><text fill="#000000" font-family="sans-serif" font-size="14" font-weight="bold" lengthAdjust="spacing" textLength="91.8477" x="300.0762" y="373.9951">Middleware</text></g><!--cluster Models--><g id="cluster_Models"><rect fill="none" height="148" rx="2.5" ry="2.5" style="stroke:#000000;stroke-width:1.5;" width="363" x="7" y="702"/><text fill="#000000" font-family="sans-serif" font-size="14" font-weight="bold" lengthAdjust="spacing" textLength="56.1982" x="160.4009" y="716.9951">Models</text></g><!--class Server--><g id="elem_Server"><rect codeLine="5" fill="#F1F1F1" height="80.5938" id="Server" rx="2.5" ry="2.5" style="stroke:#181818;stroke-width:0.5;" width="151.5693" x="191" y="50"/><ellipse cx="239.5796" cy="66" fill="#ADD1B2" rx="11" ry="11" style="stroke:#181818;stroke-width:1;"/><path d="M242.5483,71.6406 Q241.9702,71.9375 241.3296,72.0781 Q240.689,72.2344 239.9858,72.2344 Q237.4858,72.2344 236.1577,70.5938 Q234.8452,68.9375 234.8452,65.8125 Q234.8452,62.6875 236.1577,61.0313 Q237.4858,59.375 239.9858,59.375 Q240.689,59.375 241.3296,59.5313 Q241.9858,59.6875 242.5483,59.9844 L242.5483,62.7031 Q241.9233,62.125 241.3296,61.8594 Q240.7358,61.5781 240.1108,61.5781 Q238.7671,61.5781 238.0796,62.6563 Q237.3921,63.7188 237.3921,65.8125 Q237.3921,67.9063 238.0796,68.9844 Q238.7671,70.0469 240.1108,70.0469 Q240.7358,70.0469 241.3296,69.7813 Q241.9233,69.5 242.5483,68.9219 L242.5483,71.6406 Z " fill="#000000"/><text fill="#000000" font-family="sans-serif" font-size="14" lengthAdjust="spacing" textLength="45.9102" x="260.0796" y="70.8467">Server</text><line style="stroke:#181818;stroke-width:0.5;" x1="192" x2="341.5693" y1="82" y2="82"/><line style="stroke:#181818;stroke-width:0.5;" x1="192" x2="341.5693" y1="90" y2="90"/><ellipse cx="202" cy="103.6484" fill="#84BE84" rx="3" ry="3" style="stroke:#038048;stroke-width:1;"/><text fill="#000000" font-family="sans-serif" font-size="14" lengthAdjust="spacing" textLength="43.5313" x="211" y="106.9951">start()</text><ellipse cx="202" cy="119.9453" fill="#84BE84" rx="3" ry="3" style="stroke:#038048;stroke-width:1;"/><text fill="#000000" font-family="sans-serif" font-size="14" lengthAdjust="spacing" textLength="125.5693" x="211" y="123.292">configureRoutes()</text></g><!--class userRoutes--><g id="elem_userRoutes"><rect codeLine="12" fill="#F1F1F1" height="80.5938" id="userRoutes" rx="2.5" ry="2.5" style="stroke:#181818;stroke-width:0.5;" width="132.9346" x="26.5" y="230"/><ellipse cx="51.3262" cy="246" fill="#ADD1B2" rx="11" ry="11" style="stroke:#181818;stroke-width:1;"/><path d="M54.2949,251.6406 Q53.7168,251.9375 53.0762,252.0781 Q52.4355,252.2344 51.7324,252.2344 Q49.2324,252.2344 47.9043,250.5938 Q46.5918,248.9375 46.5918,245.8125 Q46.5918,242.6875 47.9043,241.0313 Q49.2324,239.375 51.7324,239.375 Q52.4355,239.375 53.0762,239.5313 Q53.7324,239.6875 54.2949,239.9844 L54.2949,242.7031 Q53.6699,242.125 53.0762,241.8594 Q52.4824,241.5781 51.8574,241.5781 Q50.5137,241.5781 49.8262,242.6563 Q49.1387,243.7188 49.1387,245.8125 Q49.1387,247.9063 49.8262,248.9844 Q50.5137,250.0469 51.8574,250.0469 Q52.4824,250.0469 53.0762,249.7813 Q53.6699,249.5 54.2949,248.9219 L54.2949,251.6406 Z " fill="#000000"/><text fill="#000000" font-family="sans-serif" font-size="14" lengthAdjust="spacing" textLength="79.0986" x="67.5098" y="250.8467">userRoutes</text><line style="stroke:#181818;stroke-width:0.5;" x1="27.5" x2="158.4346" y1="262" y2="262"/><line style="stroke:#181818;stroke-width:0.5;" x1="27.5" x2="158.4346" y1="270" y2="270"/><ellipse cx="37.5" cy="283.6484" fill="#84BE84" rx="3" ry="3" style="stroke:#038048;stroke-width:1;"/><text fill="#000000" font-family="sans-serif" font-size="14" lengthAdjust="spacing" textLength="106.9346" x="46.5" y="286.9951">handleSignup()</text><ellipse cx="37.5" cy="299.9453" fill="#84BE84" rx="3" ry="3" style="stroke:#038048;stroke-width:1;"/><text fill="#000000" font-family="sans-serif" font-size="14" lengthAdjust="spacing" textLength="96.6533" x="46.5" y="303.292">handleLogin()</text></g><!--class ResourceRoutes--><g id="elem_ResourceRoutes"><rect codeLine="16" fill="#F1F1F1" height="96.8906" id="ResourceRoutes" rx="2.5" ry="2.5" style="stroke:#181818;stroke-width:0.5;" width="145.7021" x="195" y="222"/><ellipse cx="210" cy="238" fill="#ADD1B2" rx="11" ry="11" style="stroke:#181818;stroke-width:1;"/><path d="M212.9688,243.6406 Q212.3906,243.9375 211.75,244.0781 Q211.1094,244.2344 210.4063,244.2344 Q207.9063,244.2344 206.5781,242.5938 Q205.2656,240.9375 205.2656,237.8125 Q205.2656,234.6875 206.5781,233.0313 Q207.9063,231.375 210.4063,231.375 Q211.1094,231.375 211.75,231.5313 Q212.4063,231.6875 212.9688,231.9844 L212.9688,234.7031 Q212.3438,234.125 211.75,233.8594 Q211.1563,233.5781 210.5313,233.5781 Q209.1875,233.5781 208.5,234.6563 Q207.8125,235.7188 207.8125,237.8125 Q207.8125,239.9063 208.5,240.9844 Q209.1875,242.0469 210.5313,242.0469 Q211.1563,242.0469 211.75,241.7813 Q212.3438,241.5 212.9688,240.9219 L212.9688,243.6406 Z " fill="#000000"/><text fill="#000000" font-family="sans-serif" font-size="14" lengthAdjust="spacing" textLength="113.7021" x="224" y="242.8467">ResourceRoutes</text><line style="stroke:#181818;stroke-width:0.5;" x1="196" x2="339.7021" y1="254" y2="254"/><line style="stroke:#181818;stroke-width:0.5;" x1="196" x2="339.7021" y1="262" y2="262"/><ellipse cx="206" cy="275.6484" fill="#84BE84" rx="3" ry="3" style="stroke:#038048;stroke-width:1;"/><text fill="#000000" font-family="sans-serif" font-size="14" lengthAdjust="spacing" textLength="105.4648" x="215" y="278.9951">handleCreate()</text><ellipse cx="206" cy="291.9453" fill="#84BE84" rx="3" ry="3" style="stroke:#038048;stroke-width:1;"/><text fill="#000000" font-family="sans-serif" font-size="14" lengthAdjust="spacing" textLength="100.9463" x="215" y="295.292">handleGetAll()</text><ellipse cx="206" cy="308.2422" fill="#84BE84" rx="3" ry="3" style="stroke:#038048;stroke-width:1;"/><text fill="#000000" font-family="sans-serif" font-size="14" lengthAdjust="spacing" textLength="104.6377" x="215" y="311.5889">handleDelete()</text></g><!--class UserController--><g id="elem_UserController"><rect codeLine="24" fill="#F1F1F1" height="129.4844" id="UserController" rx="2.5" ry="2.5" style="stroke:#181818;stroke-width:0.5;" width="133.083" x="26.5" y="533"/><ellipse cx="41.5" cy="549" fill="#ADD1B2" rx="11" ry="11" style="stroke:#181818;stroke-width:1;"/><path d="M44.4688,554.6406 Q43.8906,554.9375 43.25,555.0781 Q42.6094,555.2344 41.9063,555.2344 Q39.4063,555.2344 38.0781,553.5938 Q36.7656,551.9375 36.7656,548.8125 Q36.7656,545.6875 38.0781,544.0313 Q39.4063,542.375 41.9063,542.375 Q42.6094,542.375 43.25,542.5313 Q43.9063,542.6875 44.4688,542.9844 L44.4688,545.7031 Q43.8438,545.125 43.25,544.8594 Q42.6563,544.5781 42.0313,544.5781 Q40.6875,544.5781 40,545.6563 Q39.3125,546.7188 39.3125,548.8125 Q39.3125,550.9063 40,551.9844 Q40.6875,553.0469 42.0313,553.0469 Q42.6563,553.0469 43.25,552.7813 Q43.8438,552.5 44.4688,551.9219 L44.4688,554.6406 Z " fill="#000000"/><text fill="#000000" font-family="sans-serif" font-size="14" lengthAdjust="spacing" textLength="101.083" x="55.5" y="553.8467">UserController</text><line style="stroke:#181818;stroke-width:0.5;" x1="27.5" x2="158.583" y1="565" y2="565"/><text fill="#000000" font-family="sans-serif" font-size="14" lengthAdjust="spacing" textLength="11.7305" x="32.5" y="581.9951">+</text><line style="stroke:#181818;stroke-width:0.5;" x1="27.5" x2="158.583" y1="589.2969" y2="589.2969"/><ellipse cx="37.5" cy="602.9453" fill="#84BE84" rx="3" ry="3" style="stroke:#038048;stroke-width:1;"/><text fill="#000000" font-family="sans-serif" font-size="14" lengthAdjust="spacing" textLength="65.2217" x="46.5" y="606.292">register()</text><ellipse cx="37.5" cy="619.2422" fill="#84BE84" rx="3" ry="3" style="stroke:#038048;stroke-width:1;"/><text fill="#000000" font-family="sans-serif" font-size="14" lengthAdjust="spacing" textLength="45.0283" x="46.5" y="622.5889">login()</text><ellipse cx="37.5" cy="635.5391" fill="#84BE84" rx="3" ry="3" style="stroke:#038048;stroke-width:1;"/><text fill="#000000" font-family="sans-serif" font-size="14" lengthAdjust="spacing" textLength="34.1729" x="46.5" y="638.8857">put()</text><ellipse cx="37.5" cy="651.8359" fill="#84BE84" rx="3" ry="3" style="stroke:#038048;stroke-width:1;"/><text fill="#000000" font-family="sans-serif" font-size="14" lengthAdjust="spacing" textLength="55.0293" x="46.5" y="655.1826">delete()</text></g><!--class ResourceController--><g id="elem_ResourceController"><rect codeLine="31" fill="#F1F1F1" height="96.8906" id="ResourceController" rx="2.5" ry="2.5" style="stroke:#181818;stroke-width:0.5;" width="166.3125" x="195" y="549"/><ellipse cx="210" cy="565" fill="#ADD1B2" rx="11" ry="11" style="stroke:#181818;stroke-width:1;"/><path d="M212.9688,570.6406 Q212.3906,570.9375 211.75,571.0781 Q211.1094,571.2344 210.4063,571.2344 Q207.9063,571.2344 206.5781,569.5938 Q205.2656,567.9375 205.2656,564.8125 Q205.2656,561.6875 206.5781,560.0313 Q207.9063,558.375 210.4063,558.375 Q211.1094,558.375 211.75,558.5313 Q212.4063,558.6875 212.9688,558.9844 L212.9688,561.7031 Q212.3438,561.125 211.75,560.8594 Q211.1563,560.5781 210.5313,560.5781 Q209.1875,560.5781 208.5,561.6563 Q207.8125,562.7188 207.8125,564.8125 Q207.8125,566.9063 208.5,567.9844 Q209.1875,569.0469 210.5313,569.0469 Q211.1563,569.0469 211.75,568.7813 Q212.3438,568.5 212.9688,567.9219 L212.9688,570.6406 Z " fill="#000000"/><text fill="#000000" font-family="sans-serif" font-size="14" lengthAdjust="spacing" textLength="134.3125" x="224" y="569.8467">ResourceController</text><line style="stroke:#181818;stroke-width:0.5;" x1="196" x2="360.3125" y1="581" y2="581"/><line style="stroke:#181818;stroke-width:0.5;" x1="196" x2="360.3125" y1="589" y2="589"/><ellipse cx="206" cy="602.6484" fill="#84BE84" rx="3" ry="3" style="stroke:#038048;stroke-width:1;"/><text fill="#000000" font-family="sans-serif" font-size="14" lengthAdjust="spacing" textLength="116.7988" x="215" y="605.9951">createInitiative()</text><ellipse cx="206" cy="618.9453" fill="#84BE84" rx="3" ry="3" style="stroke:#038048;stroke-width:1;"/><text fill="#000000" font-family="sans-serif" font-size="14" lengthAdjust="spacing" textLength="119.6904" x="215" y="622.292">getAllInitiatives()</text><ellipse cx="206" cy="635.2422" fill="#84BE84" rx="3" ry="3" style="stroke:#038048;stroke-width:1;"/><text fill="#000000" font-family="sans-serif" font-size="14" lengthAdjust="spacing" textLength="116.1563" x="215" y="638.5889">deleteInitiative()</text></g><!--class authenticateUser--><g id="elem_authenticateUser"><rect codeLine="39" fill="#F1F1F1" height="64.2969" id="authenticateUser" rx="2.5" ry="2.5" style="stroke:#181818;stroke-width:0.5;" width="152.9688" x="269.5" y="394"/><ellipse cx="284.5" cy="410" fill="#ADD1B2" rx="11" ry="11" style="stroke:#181818;stroke-width:1;"/><path d="M287.4688,415.6406 Q286.8906,415.9375 286.25,416.0781 Q285.6094,416.2344 284.9063,416.2344 Q282.4063,416.2344 281.0781,414.5938 Q279.7656,412.9375 279.7656,409.8125 Q279.7656,406.6875 281.0781,405.0313 Q282.4063,403.375 284.9063,403.375 Q285.6094,403.375 286.25,403.5313 Q286.9063,403.6875 287.4688,403.9844 L287.4688,406.7031 Q286.8438,406.125 286.25,405.8594 Q285.6563,405.5781 285.0313,405.5781 Q283.6875,405.5781 283,406.6563 Q282.3125,407.7188 282.3125,409.8125 Q282.3125,411.9063 283,412.9844 Q283.6875,414.0469 285.0313,414.0469 Q285.6563,414.0469 286.25,413.7813 Q286.8438,413.5 287.4688,412.9219 L287.4688,415.6406 Z " fill="#000000"/><text fill="#000000" font-family="sans-serif" font-size="14" lengthAdjust="spacing" textLength="120.9688" x="298.5" y="414.8467">authenticateUser</text><line style="stroke:#181818;stroke-width:0.5;" x1="270.5" x2="421.4688" y1="426" y2="426"/><line style="stroke:#181818;stroke-width:0.5;" x1="270.5" x2="421.4688" y1="434" y2="434"/><ellipse cx="280.5" cy="447.6484" fill="#84BE84" rx="3" ry="3" style="stroke:#038048;stroke-width:1;"/><text fill="#000000" font-family="sans-serif" font-size="14" lengthAdjust="spacing" textLength="93.3926" x="289.5" y="450.9951">verifyToken()</text></g><!--class UserModel--><g id="elem_UserModel"><rect codeLine="45" fill="#F1F1F1" height="80.5938" id="UserModel" rx="2.5" ry="2.5" style="stroke:#181818;stroke-width:0.5;" width="142.0674" x="23" y="745"/><ellipse cx="54.2554" cy="761" fill="#ADD1B2" rx="11" ry="11" style="stroke:#181818;stroke-width:1;"/><path d="M57.2241,766.6406 Q56.646,766.9375 56.0054,767.0781 Q55.3647,767.2344 54.6616,767.2344 Q52.1616,767.2344 50.8335,765.5938 Q49.521,763.9375 49.521,760.8125 Q49.521,757.6875 50.8335,756.0313 Q52.1616,754.375 54.6616,754.375 Q55.3647,754.375 56.0054,754.5313 Q56.6616,754.6875 57.2241,754.9844 L57.2241,757.7031 Q56.5991,757.125 56.0054,756.8594 Q55.4116,756.5781 54.7866,756.5781 Q53.4429,756.5781 52.7554,757.6563 Q52.0679,758.7188 52.0679,760.8125 Q52.0679,762.9063 52.7554,763.9844 Q53.4429,765.0469 54.7866,765.0469 Q55.4116,765.0469 56.0054,764.7813 Q56.5991,764.5 57.2241,763.9219 L57.2241,766.6406 Z " fill="#000000"/><text fill="#000000" font-family="sans-serif" font-size="14" lengthAdjust="spacing" textLength="73.9443" x="71.8677" y="765.8467">UserModel</text><line style="stroke:#181818;stroke-width:0.5;" x1="24" x2="164.0674" y1="777" y2="777"/><ellipse cx="34" cy="790.6484" fill="none" rx="3" ry="3" style="stroke:#038048;stroke-width:1;"/><text fill="#000000" font-family="sans-serif" font-size="14" lengthAdjust="spacing" textLength="87.9648" x="43" y="793.9951">email: string</text><ellipse cx="34" cy="806.9453" fill="none" rx="3" ry="3" style="stroke:#038048;stroke-width:1;"/><text fill="#000000" font-family="sans-serif" font-size="14" lengthAdjust="spacing" textLength="116.0674" x="43" y="810.292">password: string</text><line style="stroke:#181818;stroke-width:0.5;" x1="24" x2="164.0674" y1="817.5938" y2="817.5938"/></g><!--class ResourceModel--><g id="elem_ResourceModel"><rect codeLine="49" fill="#F1F1F1" height="96.8906" id="ResourceModel" rx="2.5" ry="2.5" style="stroke:#181818;stroke-width:0.5;" width="153.1963" x="200.5" y="737"/><ellipse cx="221.8101" cy="753" fill="#ADD1B2" rx="11" ry="11" style="stroke:#181818;stroke-width:1;"/><path d="M224.7789,758.6406 Q224.2007,758.9375 223.5601,759.0781 Q222.9195,759.2344 222.2164,759.2344 Q219.7164,759.2344 218.3882,757.5938 Q217.0757,755.9375 217.0757,752.8125 Q217.0757,749.6875 218.3882,748.0313 Q219.7164,746.375 222.2164,746.375 Q222.9195,746.375 223.5601,746.5313 Q224.2164,746.6875 224.7789,746.9844 L224.7789,749.7031 Q224.1539,749.125 223.5601,748.8594 Q222.9664,748.5781 222.3414,748.5781 Q220.9976,748.5781 220.3101,749.6563 Q219.6226,750.7188 219.6226,752.8125 Q219.6226,754.9063 220.3101,755.9844 Q220.9976,757.0469 222.3414,757.0469 Q222.9664,757.0469 223.5601,756.7813 Q224.1539,756.5 224.7789,755.9219 L224.7789,758.6406 Z " fill="#000000"/><text fill="#000000" font-family="sans-serif" font-size="14" lengthAdjust="spacing" textLength="107.1738" x="237.2124" y="757.8467">ResourceModel</text><line style="stroke:#181818;stroke-width:0.5;" x1="201.5" x2="352.6963" y1="769" y2="769"/><ellipse cx="211.5" cy="782.6484" fill="none" rx="3" ry="3" style="stroke:#038048;stroke-width:1;"/><text fill="#000000" font-family="sans-serif" font-size="14" lengthAdjust="spacing" textLength="89.0586" x="220.5" y="785.9951">name: string</text><ellipse cx="211.5" cy="798.9453" fill="none" rx="3" ry="3" style="stroke:#038048;stroke-width:1;"/><text fill="#000000" font-family="sans-serif" font-size="14" lengthAdjust="spacing" textLength="127.1963" x="220.5" y="802.292">description: string</text><ellipse cx="211.5" cy="815.2422" fill="none" rx="3" ry="3" style="stroke:#038048;stroke-width:1;"/><text fill="#000000" font-family="sans-serif" font-size="14" lengthAdjust="spacing" textLength="104.9043" x="220.5" y="818.5889">location: string</text><line style="stroke:#181818;stroke-width:0.5;" x1="201.5" x2="352.6963" y1="825.8906" y2="825.8906"/></g><!--link Server to userRoutes--><g id="link_Server_userRoutes"><path codeLine="56" d="M156,155.2277 C156,155.4515 156,155.6755 156,155.8998 C156,156.3483 156,156.7977 156,157.248 C156,158.1485 156,159.0523 156,159.9591 C156,161.7727 156,163.598 156,165.4319 C156,172.7676 156,180.2408 156,187.6491 C156,202.4656 156,211.0225 156,223.7 " fill="none" id="Server-to-userRoutes" style="stroke:#181818;stroke-width:1;"/><polygon fill="#181818" points="156,229.7,160,220.7,156,224.7,152,220.7,156,229.7" style="stroke:#181818;stroke-width:1;"/><text fill="#000000" font-family="sans-serif" font-size="13" lengthAdjust="spacing" textLength="68.1357" x="87" y="156.4269">configures</text></g><!--link Server to ResourceRoutes--><g id="link_Server_ResourceRoutes"><path codeLine="57" d="M178,155.337 C178,156.3906 178,157.4453 178,158.5 C178,192.25 178,226 178,226 C178,226 178.92,226 188.93,226 " fill="none" id="Server-to-ResourceRoutes" style="stroke:#181818;stroke-width:1;"/><polygon fill="#181818" points="194.93,226,185.93,222,189.93,226,185.93,230,194.93,226" style="stroke:#181818;stroke-width:1;"/><text fill="#000000" font-family="sans-serif" font-size="13" lengthAdjust="spacing" textLength="68.1357" x="179" y="152.0669">configures</text></g><!--link userRoutes to UserController--><g id="link_userRoutes_UserController"><path codeLine="59" d="M93,311.25 C93,366.81 93,460.93 93,526.8 " fill="none" id="userRoutes-to-UserController" style="stroke:#181818;stroke-width:1;"/><polygon fill="#181818" points="93,532.8,97,523.8,93,527.8,89,523.8,93,532.8" style="stroke:#181818;stroke-width:1;"/><text fill="#000000" font-family="sans-serif" font-size="13" lengthAdjust="spacing" textLength="29.1104" x="63" y="418.0969">calls</text></g><!--link ResourceRoutes to ResourceController--><g id="link_ResourceRoutes_ResourceController"><path codeLine="60" d="M232.25,319.1 C232.25,380.93 232.25,481.07 232.25,542.9 " fill="none" id="ResourceRoutes-to-ResourceController" style="stroke:#181818;stroke-width:1;"/><polygon fill="#181818" points="232.25,548.9,236.25,539.9,232.25,543.9,228.25,539.9,232.25,548.9" style="stroke:#181818;stroke-width:1;"/><text fill="#000000" font-family="sans-serif" font-size="13" lengthAdjust="spacing" textLength="29.1104" x="202.25" y="430.0669">calls</text></g><!--link UserController to UserModel--><g id="link_UserController_UserModel"><path codeLine="62" d="M93,662.2 C93,689.6 93,714.7 93,738.8 " fill="none" id="UserController-to-UserModel" style="stroke:#181818;stroke-width:1;"/><polygon fill="#181818" points="93,744.8,97,735.8,93,739.8,89,735.8,93,744.8" style="stroke:#181818;stroke-width:1;"/><text fill="#000000" font-family="sans-serif" font-size="13" lengthAdjust="spacing" textLength="59.8584" x="33" y="699.5669">manages</text></g><!--link ResourceController to ResourceModel--><g id="link_ResourceController_ResourceModel"><path codeLine="63" d="M277,646.4 C277,674.26 277,703.03 277,730.84 " fill="none" id="ResourceController-to-ResourceModel" style="stroke:#181818;stroke-width:1;"/><polygon fill="#181818" points="277,736.84,281,727.84,277,731.84,273,727.84,277,736.84" style="stroke:#181818;stroke-width:1;"/><text fill="#000000" font-family="sans-serif" font-size="13" lengthAdjust="spacing" textLength="59.8584" x="217" y="687.6869">manages</text></g><!--link ResourceRoutes to authenticateUser--><g id="link_ResourceRoutes_authenticateUser"><path codeLine="65" d="M305.25,319.27 C305.25,343.5 305.25,366.11 305.25,387.6 " fill="none" id="ResourceRoutes-to-authenticateUser" style="stroke:#181818;stroke-width:1;"/><polygon fill="#181818" points="305.25,393.6,309.25,384.6,305.25,388.6,301.25,384.6,305.25,393.6" style="stroke:#181818;stroke-width:1;"/><text fill="#000000" font-family="sans-serif" font-size="13" lengthAdjust="spacing" textLength="29.7832" x="275.25" y="352.5069">uses</text></g><!--link authenticateUser to ResourceController--><g id="link_authenticateUser_ResourceController"><path codeLine="66" d="M315.25,458.26 C315.25,483.78 315.25,513.82 315.25,542.84 " fill="none" id="authenticateUser-to-ResourceController" style="stroke:#181818;stroke-width:1;"/><polygon fill="#181818" points="315.25,548.84,319.25,539.84,315.25,543.84,311.25,539.84,315.25,548.84" style="stroke:#181818;stroke-width:1;"/><text fill="#000000" font-family="sans-serif" font-size="13" lengthAdjust="spacing" textLength="47.6074" x="267.25" y="499.6169">verifies</text></g><!--SRC=[TLFBQiCm4BphAqHEBQK_u4EXf50AxILfFq386sU9B9dLEY6K_7lbHsF9bdNScPtT6Q_z2MsZIDMoKVgaAjZprO0aq2py7JDeWQyDI4TyT4ACNBdP0vs1Dl9NoF2qKTxBeJQMklSaFIlYXyUeefqzODKIx5pBu4Vi9cwH-02bugq76kh9WAEofO4zLhPjaZa3yEagjFSPazeEl6j9mwhYba0nP1JVWL-DoG1lOE3UaVhPEilaZ06QcVe9fYOmMOEWGiz0oIGJsHagJPl6MyPRzALLxok3TU_ymoAZOZod6LIz-mdqcU6BrZICBon3MXT5a6QXMZw2PTHXUfTBibIuApnSlzq9R5xKXTcPSFjweWIrGbE4moIqLHnaQBauAXCe5zjIqgeQCeebU4tOC3gRGOqBHkTGRshyZPwVN-AZBwO_nyUKsIKdD17rTzpPkGMkCiQBcKIicc6BcSg_y91B8MjbmoUPL6VKDCQ9djjYSH95buWNY_hgoltT8FW_]--></g></svg>