<svg xmlns="http://www.w3.org/2000/svg" xmlns:xlink="http://www.w3.org/1999/xlink" contentStyleType="text/css" height="505px" preserveAspectRatio="none" style="width:223px;height:505px;background:#FFFFFF;" version="1.1" viewBox="0 0 223 505" width="223px" zoomAndPan="magnify"><defs/><g><!--class ResourceModule--><g id="elem_ResourceModule"><rect codeLine="1" fill="#F1F1F1" height="113.1875" id="ResourceModule" rx="2.5" ry="2.5" style="stroke:#181818;stroke-width:0.5;" width="154.7891" x="34.5" y="385"/><ellipse cx="52.534" cy="401" fill="#ADD1B2" rx="11" ry="11" style="stroke:#181818;stroke-width:1;"/><path d="M55.5027,406.6406 Q54.9246,406.9375 54.284,407.0781 Q53.6434,407.2344 52.9402,407.2344 Q50.4402,407.2344 49.1121,405.5938 Q47.7996,403.9375 47.7996,400.8125 Q47.7996,397.6875 49.1121,396.0313 Q50.4402,394.375 52.9402,394.375 Q53.6434,394.375 54.284,394.5313 Q54.9402,394.6875 55.5027,394.9844 L55.5027,397.7031 Q54.8777,397.125 54.284,396.8594 Q53.6902,396.5781 53.0652,396.5781 Q51.7215,396.5781 51.034,397.6563 Q50.3465,398.7188 50.3465,400.8125 Q50.3465,402.9063 51.034,403.9844 Q51.7215,405.0469 53.0652,405.0469 Q53.6902,405.0469 54.284,404.7813 Q54.8777,404.5 55.5027,403.9219 L55.5027,406.6406 Z " fill="#000000"/><text fill="#000000" font-family="sans-serif" font-size="14" lengthAdjust="spacing" textLength="116.0469" x="67.2082" y="405.8467">ResourceModule</text><line style="stroke:#181818;stroke-width:0.5;" x1="35.5" x2="188.2891" y1="417" y2="417"/><rect fill="none" height="6" style="stroke:#C82930;stroke-width:1;" width="6" x="42.5" y="427.6484"/><text fill="#000000" font-family="sans-serif" font-size="14" lengthAdjust="spacing" textLength="80.5547" x="54.5" y="433.9951">id: ObjectId</text><rect fill="none" height="6" style="stroke:#C82930;stroke-width:1;" width="6" x="42.5" y="443.9453"/><text fill="#000000" font-family="sans-serif" font-size="14" lengthAdjust="spacing" textLength="90.6514" x="54.5" y="450.292">name: String</text><rect fill="none" height="6" style="stroke:#C82930;stroke-width:1;" width="6" x="42.5" y="460.2422"/><text fill="#000000" font-family="sans-serif" font-size="14" lengthAdjust="spacing" textLength="128.7891" x="54.5" y="466.5889">description: String</text><rect fill="none" height="6" style="stroke:#C82930;stroke-width:1;" width="6" x="42.5" y="476.5391"/><text fill="#000000" font-family="sans-serif" font-size="14" lengthAdjust="spacing" textLength="106.4971" x="54.5" y="482.8857">location: String</text><line style="stroke:#181818;stroke-width:0.5;" x1="35.5" x2="188.2891" y1="490.1875" y2="490.1875"/></g><!--class ResourceController--><g id="elem_ResourceController"><rect codeLine="8" fill="#F1F1F1" height="129.4844" id="ResourceController" rx="2.5" ry="2.5" style="stroke:#181818;stroke-width:0.5;" width="209.7773" x="7" y="196"/><ellipse cx="41.5592" cy="212" fill="#ADD1B2" rx="11" ry="11" style="stroke:#181818;stroke-width:1;"/><path d="M44.5279,217.6406 Q43.9498,217.9375 43.3092,218.0781 Q42.6686,218.2344 41.9654,218.2344 Q39.4654,218.2344 38.1373,216.5938 Q36.8248,214.9375 36.8248,211.8125 Q36.8248,208.6875 38.1373,207.0313 Q39.4654,205.375 41.9654,205.375 Q42.6686,205.375 43.3092,205.5313 Q43.9654,205.6875 44.5279,205.9844 L44.5279,208.7031 Q43.9029,208.125 43.3092,207.8594 Q42.7154,207.5781 42.0904,207.5781 Q40.7467,207.5781 40.0592,208.6563 Q39.3717,209.7188 39.3717,211.8125 Q39.3717,213.9063 40.0592,214.9844 Q40.7467,216.0469 42.0904,216.0469 Q42.7154,216.0469 43.3092,215.7813 Q43.9029,215.5 44.5279,214.9219 L44.5279,217.6406 Z " fill="#000000"/><text fill="#000000" font-family="sans-serif" font-size="14" lengthAdjust="spacing" textLength="134.3125" x="59.9057" y="216.8467">ResourceController</text><line style="stroke:#181818;stroke-width:0.5;" x1="8" x2="215.7773" y1="228" y2="228"/><line style="stroke:#181818;stroke-width:0.5;" x1="8" x2="215.7773" y1="236" y2="236"/><ellipse cx="18" cy="249.6484" fill="#84BE84" rx="3" ry="3" style="stroke:#038048;stroke-width:1;"/><text fill="#000000" font-family="sans-serif" font-size="14" lengthAdjust="spacing" textLength="174.6309" x="27" y="252.9951">createResource(req, res)</text><ellipse cx="18" cy="265.9453" fill="#84BE84" rx="3" ry="3" style="stroke:#038048;stroke-width:1;"/><text fill="#000000" font-family="sans-serif" font-size="14" lengthAdjust="spacing" textLength="160.166" x="27" y="269.292">getResources(req, res)</text><ellipse cx="18" cy="282.2422" fill="#84BE84" rx="3" ry="3" style="stroke:#038048;stroke-width:1;"/><text fill="#000000" font-family="sans-serif" font-size="14" lengthAdjust="spacing" textLength="183.7773" x="27" y="285.5889">getResourceById(req, res)</text><ellipse cx="18" cy="298.5391" fill="#84BE84" rx="3" ry="3" style="stroke:#038048;stroke-width:1;"/><text fill="#000000" font-family="sans-serif" font-size="14" lengthAdjust="spacing" textLength="179.2109" x="27" y="301.8857">updateResource(req, res)</text><ellipse cx="18" cy="314.8359" fill="#84BE84" rx="3" ry="3" style="stroke:#038048;stroke-width:1;"/><text fill="#000000" font-family="sans-serif" font-size="14" lengthAdjust="spacing" textLength="173.9883" x="27" y="318.1826">deleteResource(req, res)</text></g><!--class ResourceRoutes--><g id="elem_ResourceRoutes"><rect codeLine="16" fill="#F1F1F1" height="129.4844" id="ResourceRoutes" rx="2.5" ry="2.5" style="stroke:#181818;stroke-width:0.5;" width="155.1514" x="34.5" y="7"/><ellipse cx="53.7521" cy="23" fill="#ADD1B2" rx="11" ry="11" style="stroke:#181818;stroke-width:1;"/><path d="M56.7209,28.6406 Q56.1428,28.9375 55.5021,29.0781 Q54.8615,29.2344 54.1584,29.2344 Q51.6584,29.2344 50.3303,27.5938 Q49.0178,25.9375 49.0178,22.8125 Q49.0178,19.6875 50.3303,18.0313 Q51.6584,16.375 54.1584,16.375 Q54.8615,16.375 55.5021,16.5313 Q56.1584,16.6875 56.7209,16.9844 L56.7209,19.7031 Q56.0959,19.125 55.5021,18.8594 Q54.9084,18.5781 54.2834,18.5781 Q52.9396,18.5781 52.2521,19.6563 Q51.5646,20.7188 51.5646,22.8125 Q51.5646,24.9063 52.2521,25.9844 Q52.9396,27.0469 54.2834,27.0469 Q54.9084,27.0469 55.5021,26.7813 Q56.0959,26.5 56.7209,25.9219 L56.7209,28.6406 Z " fill="#000000"/><text fill="#000000" font-family="sans-serif" font-size="14" lengthAdjust="spacing" textLength="113.7021" x="68.6971" y="27.8467">ResourceRoutes</text><line style="stroke:#181818;stroke-width:0.5;" x1="35.5" x2="188.6514" y1="39" y2="39"/><ellipse cx="45.5" cy="52.6484" fill="none" rx="3" ry="3" style="stroke:#038048;stroke-width:1;"/><text fill="#000000" font-family="sans-serif" font-size="14" lengthAdjust="spacing" textLength="90.8154" x="54.5" y="55.9951">POST /create</text><ellipse cx="45.5" cy="68.9453" fill="none" rx="3" ry="3" style="stroke:#038048;stroke-width:1;"/><text fill="#000000" font-family="sans-serif" font-size="14" lengthAdjust="spacing" textLength="77.7588" x="54.5" y="72.292">GET /getAll</text><ellipse cx="45.5" cy="85.2422" fill="none" rx="3" ry="3" style="stroke:#038048;stroke-width:1;"/><text fill="#000000" font-family="sans-serif" font-size="14" lengthAdjust="spacing" textLength="82.6123" x="54.5" y="88.5889">GET /get/:id</text><ellipse cx="45.5" cy="101.5391" fill="none" rx="3" ry="3" style="stroke:#038048;stroke-width:1;"/><text fill="#000000" font-family="sans-serif" font-size="14" lengthAdjust="spacing" textLength="107.9463" x="54.5" y="104.8857">PUT /update/:id</text><ellipse cx="45.5" cy="117.8359" fill="none" rx="3" ry="3" style="stroke:#038048;stroke-width:1;"/><text fill="#000000" font-family="sans-serif" font-size="14" lengthAdjust="spacing" textLength="129.1514" x="54.5" y="121.1826">DELETE /delete/:id</text><line style="stroke:#181818;stroke-width:0.5;" x1="35.5" x2="188.6514" y1="128.4844" y2="128.4844"/></g><!--link ResourceController to ResourceModule--><g id="link_ResourceController_ResourceModule"><path codeLine="24" d="M112,325.11 C112,344.61 112,359.89 112,378.82 " fill="none" id="ResourceController-to-ResourceModule" style="stroke:#181818;stroke-width:1;"/><polygon fill="#181818" points="112,384.82,116,375.82,112,379.82,108,375.82,112,384.82" style="stroke:#181818;stroke-width:1;"/></g><!--link ResourceRoutes to ResourceController--><g id="link_ResourceRoutes_ResourceController"><path codeLine="25" d="M112,136.07 C112,155.34 112,170.51 112,189.79 " fill="none" id="ResourceRoutes-to-ResourceController" style="stroke:#181818;stroke-width:1;"/><polygon fill="#181818" points="112,195.79,116,186.79,112,190.79,108,186.79,112,195.79" style="stroke:#181818;stroke-width:1;"/></g><!--SRC=[TP7B3e8m44Nt_OfPQfImPs7YWnWI3GRm0x2Tc9hQOXyBO_ntIH4LXEMSs-azQQaeZO4CZNAQubun9n0U1200pY98JnUaDc4UoFAA4UHMStdsWA6XcbUMAzdXGj6o0v-4q4xHMachbH2eVTaCgCRIOXjFDDxceD5CVNX6soPcF5hT4zPBNSN6RsKeS33yiysKisZUfeSqBo1iV3tOnlLSUoo5wCnXn5cpSQn1e_9XctWN5p64ZOJ7TUt0ymJ1elSzfAVrU-Ax-080]--></g></svg>