<svg xmlns="http://www.w3.org/2000/svg" xmlns:xlink="http://www.w3.org/1999/xlink" contentStyleType="text/css" height="937px" preserveAspectRatio="none" style="width:567px;height:937px;background:#FFFFFF;" version="1.1" viewBox="0 0 567 937" width="567px" zoomAndPan="magnify"><defs/><g><!--cluster Server--><g id="cluster_Server"><rect fill="none" height="180" rx="2.5" ry="2.5" style="stroke:#000000;stroke-width:1.5;" width="203" x="249" y="7"/><text fill="#000000" font-family="sans-serif" font-size="14" font-weight="bold" lengthAdjust="spacing" textLength="52.0078" x="324.4961" y="21.9951">Server</text></g><!--cluster Routes--><g id="cluster_Routes"><rect fill="none" height="197" rx="2.5" ry="2.5" style="stroke:#000000;stroke-width:1.5;" width="324" x="22" y="219"/><text fill="#000000" font-family="sans-serif" font-size="14" font-weight="bold" lengthAdjust="spacing" textLength="54.8857" x="156.5571" y="233.9951">Routes</text></g><!--cluster Controllers--><g id="cluster_Controllers"><rect fill="none" height="180" rx="2.5" ry="2.5" style="stroke:#000000;stroke-width:1.5;" width="367" x="10" y="579"/><text fill="#000000" font-family="sans-serif" font-size="14" font-weight="bold" lengthAdjust="spacing" textLength="87.4043" x="149.7979" y="593.9951">Controllers</text></g><!--cluster Middleware--><g id="cluster_Middleware"><rect fill="none" height="115" rx="2.5" ry="2.5" style="stroke:#000000;stroke-width:1.5;" width="186" x="247" y="440"/><text fill="#000000" font-family="sans-serif" font-size="14" font-weight="bold" lengthAdjust="spacing" textLength="91.8477" x="294.0762" y="454.9951">Middleware</text></g><!--cluster Models--><g id="cluster_Models"><rect fill="none" height="148" rx="2.5" ry="2.5" style="stroke:#000000;stroke-width:1.5;" width="363" x="7" y="783"/><text fill="#000000" font-family="sans-serif" font-size="14" font-weight="bold" lengthAdjust="spacing" textLength="56.1982" x="160.4009" y="797.9951">Models</text></g><!--cluster Config--><g id="cluster_Config"><rect fill="none" height="131" rx="2.5" ry="2.5" style="stroke:#000000;stroke-width:1.5;" width="183" x="378" y="252"/><text fill="#000000" font-family="sans-serif" font-size="14" font-weight="bold" lengthAdjust="spacing" textLength="50.7705" x="444.1147" y="266.9951">Config</text></g><!--class Server--><g id="elem_Server"><rect codeLine="5" fill="#F1F1F1" height="113.1875" id="Server" rx="2.5" ry="2.5" style="stroke:#181818;stroke-width:0.5;" width="135.7305" x="292" y="50"/><ellipse cx="333.0191" cy="66" fill="#ADD1B2" rx="11" ry="11" style="stroke:#181818;stroke-width:1;"/><path d="M335.9879,71.6406 Q335.4098,71.9375 334.7691,72.0781 Q334.1285,72.2344 333.4254,72.2344 Q330.9254,72.2344 329.5973,70.5938 Q328.2848,68.9375 328.2848,65.8125 Q328.2848,62.6875 329.5973,61.0313 Q330.9254,59.375 333.4254,59.375 Q334.1285,59.375 334.7691,59.5313 Q335.4254,59.6875 335.9879,59.9844 L335.9879,62.7031 Q335.3629,62.125 334.7691,61.8594 Q334.1754,61.5781 333.5504,61.5781 Q332.2066,61.5781 331.5191,62.6563 Q330.8316,63.7188 330.8316,65.8125 Q330.8316,67.9063 331.5191,68.9844 Q332.2066,70.0469 333.5504,70.0469 Q334.1754,70.0469 334.7691,69.7813 Q335.3629,69.5 335.9879,68.9219 L335.9879,71.6406 Z " fill="#000000"/><text fill="#000000" font-family="sans-serif" font-size="14" lengthAdjust="spacing" textLength="45.9102" x="352.8012" y="70.8467">Server</text><line style="stroke:#181818;stroke-width:0.5;" x1="293" x2="426.7305" y1="82" y2="82"/><ellipse cx="303" cy="95.6484" fill="none" rx="3" ry="3" style="stroke:#038048;stroke-width:1;"/><text fill="#000000" font-family="sans-serif" font-size="14" lengthAdjust="spacing" textLength="79.0986" x="312" y="98.9951">userRoutes</text><ellipse cx="303" cy="111.9453" fill="none" rx="3" ry="3" style="stroke:#038048;stroke-width:1;"/><text fill="#000000" font-family="sans-serif" font-size="14" lengthAdjust="spacing" textLength="109.7305" x="312" y="115.292">resourceRoutes</text><line style="stroke:#181818;stroke-width:0.5;" x1="293" x2="426.7305" y1="122.5938" y2="122.5938"/><ellipse cx="303" cy="136.2422" fill="#84BE84" rx="3" ry="3" style="stroke:#038048;stroke-width:1;"/><text fill="#000000" font-family="sans-serif" font-size="14" lengthAdjust="spacing" textLength="89.1953" x="312" y="139.5889">ConnectDB()</text><ellipse cx="303" cy="152.5391" fill="#84BE84" rx="3" ry="3" style="stroke:#038048;stroke-width:1;"/><text fill="#000000" font-family="sans-serif" font-size="14" lengthAdjust="spacing" textLength="43.5313" x="312" y="155.8857">start()</text></g><!--class userRoutes--><g id="elem_userRoutes"><rect codeLine="14" fill="#F1F1F1" height="145.7813" id="userRoutes" rx="2.5" ry="2.5" style="stroke:#181818;stroke-width:0.5;" width="111.0986" x="37.5" y="254"/><ellipse cx="52.5" cy="270" fill="#ADD1B2" rx="11" ry="11" style="stroke:#181818;stroke-width:1;"/><path d="M55.4688,275.6406 Q54.8906,275.9375 54.25,276.0781 Q53.6094,276.2344 52.9063,276.2344 Q50.4063,276.2344 49.0781,274.5938 Q47.7656,272.9375 47.7656,269.8125 Q47.7656,266.6875 49.0781,265.0313 Q50.4063,263.375 52.9063,263.375 Q53.6094,263.375 54.25,263.5313 Q54.9063,263.6875 55.4688,263.9844 L55.4688,266.7031 Q54.8438,266.125 54.25,265.8594 Q53.6563,265.5781 53.0313,265.5781 Q51.6875,265.5781 51,266.6563 Q50.3125,267.7188 50.3125,269.8125 Q50.3125,271.9063 51,272.9844 Q51.6875,274.0469 53.0313,274.0469 Q53.6563,274.0469 54.25,273.7813 Q54.8438,273.5 55.4688,272.9219 L55.4688,275.6406 Z " fill="#000000"/><text fill="#000000" font-family="sans-serif" font-size="14" lengthAdjust="spacing" textLength="79.0986" x="66.5" y="274.8467">userRoutes</text><line style="stroke:#181818;stroke-width:0.5;" x1="38.5" x2="147.5986" y1="286" y2="286"/><line style="stroke:#181818;stroke-width:0.5;" x1="38.5" x2="147.5986" y1="294" y2="294"/><ellipse cx="48.5" cy="307.6484" fill="#84BE84" rx="3" ry="3" style="stroke:#038048;stroke-width:1;"/><text fill="#000000" font-family="sans-serif" font-size="14" lengthAdjust="spacing" textLength="65.2217" x="57.5" y="310.9951">register()</text><ellipse cx="48.5" cy="323.9453" fill="#84BE84" rx="3" ry="3" style="stroke:#038048;stroke-width:1;"/><text fill="#000000" font-family="sans-serif" font-size="14" lengthAdjust="spacing" textLength="45.0283" x="57.5" y="327.292">login()</text><ellipse cx="48.5" cy="340.2422" fill="#84BE84" rx="3" ry="3" style="stroke:#038048;stroke-width:1;"/><text fill="#000000" font-family="sans-serif" font-size="14" lengthAdjust="spacing" textLength="51.2695" x="57.5" y="343.5889">getAll()</text><ellipse cx="48.5" cy="356.5391" fill="#84BE84" rx="3" ry="3" style="stroke:#038048;stroke-width:1;"/><text fill="#000000" font-family="sans-serif" font-size="14" lengthAdjust="spacing" textLength="33.9131" x="57.5" y="359.8857">get()</text><ellipse cx="48.5" cy="372.8359" fill="#84BE84" rx="3" ry="3" style="stroke:#038048;stroke-width:1;"/><text fill="#000000" font-family="sans-serif" font-size="14" lengthAdjust="spacing" textLength="60.252" x="57.5" y="376.1826">update()</text><ellipse cx="48.5" cy="389.1328" fill="#84BE84" rx="3" ry="3" style="stroke:#038048;stroke-width:1;"/><text fill="#000000" font-family="sans-serif" font-size="14" lengthAdjust="spacing" textLength="55.0293" x="57.5" y="392.4795">delete()</text></g><!--class ResourceRoutes--><g id="elem_ResourceRoutes"><rect codeLine="22" fill="#F1F1F1" height="129.4844" id="ResourceRoutes" rx="2.5" ry="2.5" style="stroke:#181818;stroke-width:0.5;" width="145.7021" x="184" y="262.5"/><ellipse cx="199" cy="278.5" fill="#ADD1B2" rx="11" ry="11" style="stroke:#181818;stroke-width:1;"/><path d="M201.9688,284.1406 Q201.3906,284.4375 200.75,284.5781 Q200.1094,284.7344 199.4063,284.7344 Q196.9063,284.7344 195.5781,283.0938 Q194.2656,281.4375 194.2656,278.3125 Q194.2656,275.1875 195.5781,273.5313 Q196.9063,271.875 199.4063,271.875 Q200.1094,271.875 200.75,272.0313 Q201.4063,272.1875 201.9688,272.4844 L201.9688,275.2031 Q201.3438,274.625 200.75,274.3594 Q200.1563,274.0781 199.5313,274.0781 Q198.1875,274.0781 197.5,275.1563 Q196.8125,276.2188 196.8125,278.3125 Q196.8125,280.4063 197.5,281.4844 Q198.1875,282.5469 199.5313,282.5469 Q200.1563,282.5469 200.75,282.2813 Q201.3438,282 201.9688,281.4219 L201.9688,284.1406 Z " fill="#000000"/><text fill="#000000" font-family="sans-serif" font-size="14" lengthAdjust="spacing" textLength="113.7021" x="213" y="283.3467">ResourceRoutes</text><line style="stroke:#181818;stroke-width:0.5;" x1="185" x2="328.7021" y1="294.5" y2="294.5"/><line style="stroke:#181818;stroke-width:0.5;" x1="185" x2="328.7021" y1="302.5" y2="302.5"/><ellipse cx="195" cy="316.1484" fill="#84BE84" rx="3" ry="3" style="stroke:#038048;stroke-width:1;"/><text fill="#000000" font-family="sans-serif" font-size="14" lengthAdjust="spacing" textLength="57.75" x="204" y="319.4951">Create()</text><ellipse cx="195" cy="332.4453" fill="#84BE84" rx="3" ry="3" style="stroke:#038048;stroke-width:1;"/><text fill="#000000" font-family="sans-serif" font-size="14" lengthAdjust="spacing" textLength="53.2314" x="204" y="335.792">GetAll()</text><ellipse cx="195" cy="348.7422" fill="#84BE84" rx="3" ry="3" style="stroke:#038048;stroke-width:1;"/><text fill="#000000" font-family="sans-serif" font-size="14" lengthAdjust="spacing" textLength="35.875" x="204" y="352.0889">Get()</text><ellipse cx="195" cy="365.0391" fill="#84BE84" rx="3" ry="3" style="stroke:#038048;stroke-width:1;"/><text fill="#000000" font-family="sans-serif" font-size="14" lengthAdjust="spacing" textLength="61.626" x="204" y="368.3857">Update()</text><ellipse cx="195" cy="381.3359" fill="#84BE84" rx="3" ry="3" style="stroke:#038048;stroke-width:1;"/><text fill="#000000" font-family="sans-serif" font-size="14" lengthAdjust="spacing" textLength="56.9229" x="204" y="384.6826">Delete()</text></g><!--class UserController--><g id="elem_UserController"><rect codeLine="32" fill="#F1F1F1" height="113.1875" id="UserController" rx="2.5" ry="2.5" style="stroke:#181818;stroke-width:0.5;" width="133.083" x="26.5" y="622"/><ellipse cx="41.5" cy="638" fill="#ADD1B2" rx="11" ry="11" style="stroke:#181818;stroke-width:1;"/><path d="M44.4688,643.6406 Q43.8906,643.9375 43.25,644.0781 Q42.6094,644.2344 41.9063,644.2344 Q39.4063,644.2344 38.0781,642.5938 Q36.7656,640.9375 36.7656,637.8125 Q36.7656,634.6875 38.0781,633.0313 Q39.4063,631.375 41.9063,631.375 Q42.6094,631.375 43.25,631.5313 Q43.9063,631.6875 44.4688,631.9844 L44.4688,634.7031 Q43.8438,634.125 43.25,633.8594 Q42.6563,633.5781 42.0313,633.5781 Q40.6875,633.5781 40,634.6563 Q39.3125,635.7188 39.3125,637.8125 Q39.3125,639.9063 40,640.9844 Q40.6875,642.0469 42.0313,642.0469 Q42.6563,642.0469 43.25,641.7813 Q43.8438,641.5 44.4688,640.9219 L44.4688,643.6406 Z " fill="#000000"/><text fill="#000000" font-family="sans-serif" font-size="14" lengthAdjust="spacing" textLength="101.083" x="55.5" y="642.8467">UserController</text><line style="stroke:#181818;stroke-width:0.5;" x1="27.5" x2="158.583" y1="654" y2="654"/><line style="stroke:#181818;stroke-width:0.5;" x1="27.5" x2="158.583" y1="662" y2="662"/><ellipse cx="37.5" cy="675.6484" fill="#84BE84" rx="3" ry="3" style="stroke:#038048;stroke-width:1;"/><text fill="#000000" font-family="sans-serif" font-size="14" lengthAdjust="spacing" textLength="65.2217" x="46.5" y="678.9951">register()</text><ellipse cx="37.5" cy="691.9453" fill="#84BE84" rx="3" ry="3" style="stroke:#038048;stroke-width:1;"/><text fill="#000000" font-family="sans-serif" font-size="14" lengthAdjust="spacing" textLength="45.0283" x="46.5" y="695.292">login()</text><ellipse cx="37.5" cy="708.2422" fill="#84BE84" rx="3" ry="3" style="stroke:#038048;stroke-width:1;"/><text fill="#000000" font-family="sans-serif" font-size="14" lengthAdjust="spacing" textLength="34.1729" x="46.5" y="711.5889">put()</text><ellipse cx="37.5" cy="724.5391" fill="#84BE84" rx="3" ry="3" style="stroke:#038048;stroke-width:1;"/><text fill="#000000" font-family="sans-serif" font-size="14" lengthAdjust="spacing" textLength="55.0293" x="46.5" y="727.8857">delete()</text></g><!--class ResourceController--><g id="elem_ResourceController"><rect codeLine="38" fill="#F1F1F1" height="129.4844" id="ResourceController" rx="2.5" ry="2.5" style="stroke:#181818;stroke-width:0.5;" width="166.3125" x="195" y="614"/><ellipse cx="210" cy="630" fill="#ADD1B2" rx="11" ry="11" style="stroke:#181818;stroke-width:1;"/><path d="M212.9688,635.6406 Q212.3906,635.9375 211.75,636.0781 Q211.1094,636.2344 210.4063,636.2344 Q207.9063,636.2344 206.5781,634.5938 Q205.2656,632.9375 205.2656,629.8125 Q205.2656,626.6875 206.5781,625.0313 Q207.9063,623.375 210.4063,623.375 Q211.1094,623.375 211.75,623.5313 Q212.4063,623.6875 212.9688,623.9844 L212.9688,626.7031 Q212.3438,626.125 211.75,625.8594 Q211.1563,625.5781 210.5313,625.5781 Q209.1875,625.5781 208.5,626.6563 Q207.8125,627.7188 207.8125,629.8125 Q207.8125,631.9063 208.5,632.9844 Q209.1875,634.0469 210.5313,634.0469 Q211.1563,634.0469 211.75,633.7813 Q212.3438,633.5 212.9688,632.9219 L212.9688,635.6406 Z " fill="#000000"/><text fill="#000000" font-family="sans-serif" font-size="14" lengthAdjust="spacing" textLength="134.3125" x="224" y="634.8467">ResourceController</text><line style="stroke:#181818;stroke-width:0.5;" x1="196" x2="360.3125" y1="646" y2="646"/><line style="stroke:#181818;stroke-width:0.5;" x1="196" x2="360.3125" y1="654" y2="654"/><ellipse cx="206" cy="667.6484" fill="#84BE84" rx="3" ry="3" style="stroke:#038048;stroke-width:1;"/><text fill="#000000" font-family="sans-serif" font-size="14" lengthAdjust="spacing" textLength="120.8115" x="215" y="670.9951">createResource()</text><ellipse cx="206" cy="683.9453" fill="#84BE84" rx="3" ry="3" style="stroke:#038048;stroke-width:1;"/><text fill="#000000" font-family="sans-serif" font-size="14" lengthAdjust="spacing" textLength="106.3467" x="215" y="687.292">getResources()</text><ellipse cx="206" cy="700.2422" fill="#84BE84" rx="3" ry="3" style="stroke:#038048;stroke-width:1;"/><text fill="#000000" font-family="sans-serif" font-size="14" lengthAdjust="spacing" textLength="129.958" x="215" y="703.5889">getResourceById()</text><ellipse cx="206" cy="716.5391" fill="#84BE84" rx="3" ry="3" style="stroke:#038048;stroke-width:1;"/><text fill="#000000" font-family="sans-serif" font-size="14" lengthAdjust="spacing" textLength="125.3916" x="215" y="719.8857">updateResource()</text><ellipse cx="206" cy="732.8359" fill="#84BE84" rx="3" ry="3" style="stroke:#038048;stroke-width:1;"/><text fill="#000000" font-family="sans-serif" font-size="14" lengthAdjust="spacing" textLength="120.1689" x="215" y="736.1826">deleteResource()</text></g><!--class authenticateUser--><g id="elem_authenticateUser"><rect codeLine="48" fill="#F1F1F1" height="64.2969" id="authenticateUser" rx="2.5" ry="2.5" style="stroke:#181818;stroke-width:0.5;" width="152.9688" x="263.5" y="475"/><ellipse cx="278.5" cy="491" fill="#ADD1B2" rx="11" ry="11" style="stroke:#181818;stroke-width:1;"/><path d="M281.4688,496.6406 Q280.8906,496.9375 280.25,497.0781 Q279.6094,497.2344 278.9063,497.2344 Q276.4063,497.2344 275.0781,495.5938 Q273.7656,493.9375 273.7656,490.8125 Q273.7656,487.6875 275.0781,486.0313 Q276.4063,484.375 278.9063,484.375 Q279.6094,484.375 280.25,484.5313 Q280.9063,484.6875 281.4688,484.9844 L281.4688,487.7031 Q280.8438,487.125 280.25,486.8594 Q279.6563,486.5781 279.0313,486.5781 Q277.6875,486.5781 277,487.6563 Q276.3125,488.7188 276.3125,490.8125 Q276.3125,492.9063 277,493.9844 Q277.6875,495.0469 279.0313,495.0469 Q279.6563,495.0469 280.25,494.7813 Q280.8438,494.5 281.4688,493.9219 L281.4688,496.6406 Z " fill="#000000"/><text fill="#000000" font-family="sans-serif" font-size="14" lengthAdjust="spacing" textLength="120.9688" x="292.5" y="495.8467">authenticateUser</text><line style="stroke:#181818;stroke-width:0.5;" x1="264.5" x2="415.4688" y1="507" y2="507"/><line style="stroke:#181818;stroke-width:0.5;" x1="264.5" x2="415.4688" y1="515" y2="515"/><ellipse cx="274.5" cy="528.6484" fill="#84BE84" rx="3" ry="3" style="stroke:#038048;stroke-width:1;"/><text fill="#000000" font-family="sans-serif" font-size="14" lengthAdjust="spacing" textLength="93.3926" x="283.5" y="531.9951">verifyToken()</text></g><!--class UserModel--><g id="elem_UserModel"><rect codeLine="54" fill="#F1F1F1" height="80.5938" id="UserModel" rx="2.5" ry="2.5" style="stroke:#181818;stroke-width:0.5;" width="142.0674" x="23" y="826"/><ellipse cx="54.2554" cy="842" fill="#ADD1B2" rx="11" ry="11" style="stroke:#181818;stroke-width:1;"/><path d="M57.2241,847.6406 Q56.646,847.9375 56.0054,848.0781 Q55.3647,848.2344 54.6616,848.2344 Q52.1616,848.2344 50.8335,846.5938 Q49.521,844.9375 49.521,841.8125 Q49.521,838.6875 50.8335,837.0313 Q52.1616,835.375 54.6616,835.375 Q55.3647,835.375 56.0054,835.5313 Q56.6616,835.6875 57.2241,835.9844 L57.2241,838.7031 Q56.5991,838.125 56.0054,837.8594 Q55.4116,837.5781 54.7866,837.5781 Q53.4429,837.5781 52.7554,838.6563 Q52.0679,839.7188 52.0679,841.8125 Q52.0679,843.9063 52.7554,844.9844 Q53.4429,846.0469 54.7866,846.0469 Q55.4116,846.0469 56.0054,845.7813 Q56.5991,845.5 57.2241,844.9219 L57.2241,847.6406 Z " fill="#000000"/><text fill="#000000" font-family="sans-serif" font-size="14" lengthAdjust="spacing" textLength="73.9443" x="71.8677" y="846.8467">UserModel</text><line style="stroke:#181818;stroke-width:0.5;" x1="24" x2="164.0674" y1="858" y2="858"/><ellipse cx="34" cy="871.6484" fill="none" rx="3" ry="3" style="stroke:#038048;stroke-width:1;"/><text fill="#000000" font-family="sans-serif" font-size="14" lengthAdjust="spacing" textLength="87.9648" x="43" y="874.9951">email: string</text><ellipse cx="34" cy="887.9453" fill="none" rx="3" ry="3" style="stroke:#038048;stroke-width:1;"/><text fill="#000000" font-family="sans-serif" font-size="14" lengthAdjust="spacing" textLength="116.0674" x="43" y="891.292">password: string</text><line style="stroke:#181818;stroke-width:0.5;" x1="24" x2="164.0674" y1="898.5938" y2="898.5938"/></g><!--class ResourceModel--><g id="elem_ResourceModel"><rect codeLine="58" fill="#F1F1F1" height="96.8906" id="ResourceModel" rx="2.5" ry="2.5" style="stroke:#181818;stroke-width:0.5;" width="153.1963" x="200.5" y="818"/><ellipse cx="221.8101" cy="834" fill="#ADD1B2" rx="11" ry="11" style="stroke:#181818;stroke-width:1;"/><path d="M224.7789,839.6406 Q224.2007,839.9375 223.5601,840.0781 Q222.9195,840.2344 222.2164,840.2344 Q219.7164,840.2344 218.3882,838.5938 Q217.0757,836.9375 217.0757,833.8125 Q217.0757,830.6875 218.3882,829.0313 Q219.7164,827.375 222.2164,827.375 Q222.9195,827.375 223.5601,827.5313 Q224.2164,827.6875 224.7789,827.9844 L224.7789,830.7031 Q224.1539,830.125 223.5601,829.8594 Q222.9664,829.5781 222.3414,829.5781 Q220.9976,829.5781 220.3101,830.6563 Q219.6226,831.7188 219.6226,833.8125 Q219.6226,835.9063 220.3101,836.9844 Q220.9976,838.0469 222.3414,838.0469 Q222.9664,838.0469 223.5601,837.7813 Q224.1539,837.5 224.7789,836.9219 L224.7789,839.6406 Z " fill="#000000"/><text fill="#000000" font-family="sans-serif" font-size="14" lengthAdjust="spacing" textLength="107.1738" x="237.2124" y="838.8467">ResourceModel</text><line style="stroke:#181818;stroke-width:0.5;" x1="201.5" x2="352.6963" y1="850" y2="850"/><ellipse cx="211.5" cy="863.6484" fill="none" rx="3" ry="3" style="stroke:#038048;stroke-width:1;"/><text fill="#000000" font-family="sans-serif" font-size="14" lengthAdjust="spacing" textLength="89.0586" x="220.5" y="866.9951">name: string</text><ellipse cx="211.5" cy="879.9453" fill="none" rx="3" ry="3" style="stroke:#038048;stroke-width:1;"/><text fill="#000000" font-family="sans-serif" font-size="14" lengthAdjust="spacing" textLength="127.1963" x="220.5" y="883.292">description: string</text><ellipse cx="211.5" cy="896.2422" fill="none" rx="3" ry="3" style="stroke:#038048;stroke-width:1;"/><text fill="#000000" font-family="sans-serif" font-size="14" lengthAdjust="spacing" textLength="104.9043" x="220.5" y="899.5889">location: string</text><line style="stroke:#181818;stroke-width:0.5;" x1="201.5" x2="352.6963" y1="906.8906" y2="906.8906"/></g><!--class Config--><g id="elem_Config"><rect codeLine="66" fill="#F1F1F1" height="64.2969" id="Config" rx="2.5" ry="2.5" style="stroke:#181818;stroke-width:0.5;" width="115.1953" x="421.5" y="295"/><ellipse cx="453.7244" cy="311" fill="#ADD1B2" rx="11" ry="11" style="stroke:#181818;stroke-width:1;"/><path d="M456.6931,316.6406 Q456.115,316.9375 455.4744,317.0781 Q454.8337,317.2344 454.1306,317.2344 Q451.6306,317.2344 450.3025,315.5938 Q448.99,313.9375 448.99,310.8125 Q448.99,307.6875 450.3025,306.0313 Q451.6306,304.375 454.1306,304.375 Q454.8337,304.375 455.4744,304.5313 Q456.1306,304.6875 456.6931,304.9844 L456.6931,307.7031 Q456.0681,307.125 455.4744,306.8594 Q454.8806,306.5781 454.2556,306.5781 Q452.9119,306.5781 452.2244,307.6563 Q451.5369,308.7188 451.5369,310.8125 Q451.5369,312.9063 452.2244,313.9844 Q452.9119,315.0469 454.2556,315.0469 Q454.8806,315.0469 455.4744,314.7813 Q456.0681,314.5 456.6931,313.9219 L456.6931,316.6406 Z " fill="#000000"/><text fill="#000000" font-family="sans-serif" font-size="14" lengthAdjust="spacing" textLength="44.9189" x="471.552" y="315.8467">Config</text><line style="stroke:#181818;stroke-width:0.5;" x1="422.5" x2="535.6953" y1="327" y2="327"/><line style="stroke:#181818;stroke-width:0.5;" x1="422.5" x2="535.6953" y1="335" y2="335"/><ellipse cx="432.5" cy="348.6484" fill="#84BE84" rx="3" ry="3" style="stroke:#038048;stroke-width:1;"/><text fill="#000000" font-family="sans-serif" font-size="14" lengthAdjust="spacing" textLength="89.1953" x="441.5" y="351.9951">ConnectDB()</text></g><!--link Server to userRoutes--><g id="link_Server_userRoutes"><path codeLine="71" d="M248.8608,107 C248.7137,107 248.5648,107 248.4142,107 C243.5941,107 236.9794,107 229.1812,107 C213.585,107 193.255,107 173.08,107 C132.73,107 93,107 93,107 C93,107 93,183.75 93,247.74 " fill="none" id="Server-to-userRoutes" style="stroke:#181818;stroke-width:1;"/><polygon fill="#181818" points="93,253.74,97,244.74,93,248.74,89,244.74,93,253.74" style="stroke:#181818;stroke-width:1;"/><text fill="#000000" font-family="sans-serif" font-size="13" lengthAdjust="spacing" textLength="68.1357" x="32.57" y="103.0669">configures</text></g><!--link Server to ResourceRoutes--><g id="link_Server_ResourceRoutes"><path codeLine="72" d="M257,187.3839 C257,187.6383 257,187.8928 257,188.1476 C257,196.3003 257,204.6772 257,213.0825 C257,229.8931 257,240.8175 257,256.29 " fill="none" id="Server-to-ResourceRoutes" style="stroke:#181818;stroke-width:1;"/><polygon fill="#181818" points="257,262.29,261,253.29,257,257.29,253,253.29,257,262.29" style="stroke:#181818;stroke-width:1;"/><text fill="#000000" font-family="sans-serif" font-size="13" lengthAdjust="spacing" textLength="68.1357" x="188" y="180.7769">configures</text></g><!--link userRoutes to UserController--><g id="link_userRoutes_UserController"><path codeLine="74" d="M93,400.26 C93,466.15 93,555.59 93,615.82 " fill="none" id="userRoutes-to-UserController" style="stroke:#181818;stroke-width:1;"/><polygon fill="#181818" points="93,621.82,97,612.82,93,616.82,89,612.82,93,621.82" style="stroke:#181818;stroke-width:1;"/><text fill="#000000" font-family="sans-serif" font-size="13" lengthAdjust="spacing" textLength="29.1104" x="63" y="507.1069">calls</text></g><!--link ResourceRoutes to ResourceController--><g id="link_ResourceRoutes_ResourceController"><path codeLine="75" d="M229.25,391.88 C229.25,455.16 229.25,544.85 229.25,608 " fill="none" id="ResourceRoutes-to-ResourceController" style="stroke:#181818;stroke-width:1;"/><polygon fill="#181818" points="229.25,614,233.25,605,229.25,609,225.25,605,229.25,614" style="stroke:#181818;stroke-width:1;"/><text fill="#000000" font-family="sans-serif" font-size="13" lengthAdjust="spacing" textLength="29.1104" x="199.25" y="499.0069">calls</text></g><!--link UserController to UserModel--><g id="link_UserController_UserModel"><path codeLine="77" d="M93,735.16 C93,764.35 93,793.28 93,819.78 " fill="none" id="UserController-to-UserModel" style="stroke:#181818;stroke-width:1;"/><polygon fill="#181818" points="93,825.78,97,816.78,93,820.78,89,816.78,93,825.78" style="stroke:#181818;stroke-width:1;"/><text fill="#000000" font-family="sans-serif" font-size="13" lengthAdjust="spacing" textLength="59.8584" x="33" y="776.5369">manages</text></g><!--link ResourceController to ResourceModel--><g id="link_ResourceController_ResourceModel"><path codeLine="78" d="M277,743.2 C277,767.63 277,788.99 277,811.72 " fill="none" id="ResourceController-to-ResourceModel" style="stroke:#181818;stroke-width:1;"/><polygon fill="#181818" points="277,817.72,281,808.72,277,812.72,273,808.72,277,817.72" style="stroke:#181818;stroke-width:1;"/><text fill="#000000" font-family="sans-serif" font-size="13" lengthAdjust="spacing" textLength="59.8584" x="217" y="776.5269">manages</text></g><!--link ResourceRoutes to authenticateUser--><g id="link_ResourceRoutes_authenticateUser"><path codeLine="80" d="M296.75,391.73 C296.75,419.95 296.75,445.78 296.75,468.83 " fill="none" id="ResourceRoutes-to-authenticateUser" style="stroke:#181818;stroke-width:1;"/><polygon fill="#181818" points="296.75,474.83,300.75,465.83,296.75,469.83,292.75,465.83,296.75,474.83" style="stroke:#181818;stroke-width:1;"/><text fill="#000000" font-family="sans-serif" font-size="13" lengthAdjust="spacing" textLength="29.7832" x="266.75" y="429.3469">uses</text></g><!--link authenticateUser to ResourceController--><g id="link_authenticateUser_ResourceController"><path codeLine="81" d="M312.25,539.26 C312.25,560.22 312.25,582.27 312.25,607.71 " fill="none" id="authenticateUser-to-ResourceController" style="stroke:#181818;stroke-width:1;"/><polygon fill="#181818" points="312.25,613.71,316.25,604.71,312.25,608.71,308.25,604.71,312.25,613.71" style="stroke:#181818;stroke-width:1;"/><text fill="#000000" font-family="sans-serif" font-size="13" lengthAdjust="spacing" textLength="47.6074" x="264.25" y="572.5469">verifies</text></g><!--link Server to Config--><g id="link_Server_Config"><path codeLine="83" d="M275,187.3684 C275,188.0338 275,188.689 275,189.3334 C275,190.6221 275,191.8672 275,193.0625 C275,202.625 275,209 275,209 C275,209 386,209 386,209 C386,209 386,215.7 386,225.907 C386,231.0105 386,236.9908 386,243.4487 C386,245.0632 386,246.7075 386,248.3755 C386,249.2095 386,250.0493 386,250.8943 C386,251.1056 386,245.3172 386,245.529 " fill="none" id="Server-to-Config" style="stroke:#181818;stroke-width:1;"/><polygon fill="#181818" points="386,251.529,390,242.529,386,246.529,382,242.529,386,251.529" style="stroke:#181818;stroke-width:1;"/><text fill="#000000" font-family="sans-serif" font-size="13" lengthAdjust="spacing" textLength="29.7832" x="299.15" y="205.0669">uses</text></g><!--SRC=[dLJBRiCW4Bpp5QYdLbL-m8TAJID5FVIID1-0yCP18M0jk95LvT-B7ubPJ2grFiuCiykmQtTKfXOeJhmMyYWgsFfM0qUGdhaRfvK1tzR0BVg3PMpKyeSju1VW0_zcF7nI2-VuW8rGzptpDsjCS5mj7vyYr7c1dY2D0zpOneEBG0Hd6vGG4HTsYPeO2Dh4v4GQGQYKyu2aghQLCWIfmBzgdKAqrReK7WXKWeORT8cQsP0Rq6GGKflrlFWwARwR5r_Hud4-8NsFLcl09AHT26aY_nDKtVY_HN2ddEnZk8hIuA-ukqSis_SoypfPlw75XAA1VQYor70M23GlqVW36AzayEwo8rS8Cw_sxQSzWicRsb0vym0zJfpW99GkmdgWCbKSTZXojbWIAXVotDA84sGSIt0ILUsLDHbMst3Hb9gDrbvLz583zkl-zoRZVsAnU8ctjU2oFz-4jOyboGuH6OlETzfaheDMQErOOX6xPjGiSRaQ3-4M_2HCY61oJQJqBIPvhelPN1LT8exDyBijzyEdElieil4X1hCV]--></g></svg>